<svg xmlns="http://www.w3.org/2000/svg" version="1.1" xmlns:xlink="http://www.w3.org/1999/xlink" xmlns:svgjs="http://svgjs.com/svgjs" width="1440" height="1080" preserveAspectRatio="none" viewBox="0 0 1440 1080"><g mask="url(&quot;#SvgjsMask1026&quot;)" fill="none"><rect width="1440" height="1080" x="0" y="0" fill="#0e2a47"></rect><path d="M47.7 -22.59L112.65 14.91L112.65 89.91L47.7 127.41L-17.25 89.91L-17.25 14.91zM47.7 877.41L112.65 914.91L112.65 989.91L47.7 1027.41L-17.25 989.91L-17.25 914.91zM177.61 202.41L242.56 239.91L242.56 314.91L177.61 352.41L112.65 314.91L112.65 239.91zM242.56 314.91L307.51 352.41L307.51 427.41L242.56 464.91L177.61 427.41L177.61 352.41zM242.56 764.91L307.51 802.41L307.51 877.41L242.56 914.91L177.61 877.41L177.61 802.41zM177.61 877.41L242.56 914.91L242.56 989.91L177.61 1027.41L112.65 989.91L112.65 914.91zM242.56 989.91L307.51 1027.41L307.51 1102.41L242.56 1139.91L177.61 1102.41L177.61 1027.41zM307.51 427.41L372.47 464.91L372.47 539.91L307.51 577.41L242.56 539.91L242.56 464.91zM372.47 539.91L437.42 577.41L437.42 652.41L372.47 689.91L307.51 652.41L307.51 577.41zM437.42 -22.59L502.38 14.91L502.38 89.91L437.42 127.41L372.47 89.91L372.47 14.91zM502.38 314.91L567.33 352.41L567.33 427.41L502.38 464.91L437.42 427.41L437.42 352.41zM437.42 427.41L502.38 464.91L502.38 539.91L437.42 577.41L372.47 539.91L372.47 464.91zM502.38 539.91L567.33 577.41L567.33 652.41L502.38 689.91L437.42 652.41L437.42 577.41zM437.42 652.41L502.38 689.91L502.38 764.91L437.42 802.41L372.47 764.91L372.47 689.91zM437.42 1102.41L502.38 1139.91L502.38 1214.91L437.42 1252.41L372.47 1214.91L372.47 1139.91zM567.33 202.41L632.28 239.91L632.28 314.91L567.33 352.41L502.38 314.91L502.38 239.91zM567.33 877.41L632.28 914.91L632.28 989.91L567.33 1027.41L502.38 989.91L502.38 914.91zM697.24 -22.59L762.19 14.91L762.19 89.91L697.24 127.41L632.28 89.91L632.28 14.91zM762.19 764.91L827.15 802.41L827.15 877.41L762.19 914.91L697.24 877.41L697.24 802.41zM697.24 877.41L762.19 914.91L762.19 989.91L697.24 1027.41L632.28 989.91L632.28 914.91zM892.1 764.91L957.05 802.41L957.05 877.41L892.1 914.91L827.14 877.41L827.14 802.41zM957.05 1102.41L1022.01 1139.91L1022.01 1214.91L957.05 1252.41L892.1 1214.91L892.1 1139.91zM1151.91 764.91L1216.87 802.41L1216.87 877.41L1151.91 914.91L1086.96 877.41L1086.96 802.41zM1151.91 989.91L1216.87 1027.41L1216.87 1102.41L1151.91 1139.91L1086.96 1102.41L1086.96 1027.41zM1086.96 1102.41L1151.91 1139.91L1151.91 1214.91L1086.96 1252.41L1022.01 1214.91L1022.01 1139.91zM1281.82 89.91L1346.77 127.41L1346.77 202.41L1281.82 239.91L1216.87 202.41L1216.87 127.41zM1281.82 314.91L1346.77 352.41L1346.77 427.41L1281.82 464.91L1216.87 427.41L1216.87 352.41zM1216.87 1102.41L1281.82 1139.91L1281.82 1214.91L1216.87 1252.41L1151.91 1214.91L1151.91 1139.91zM1346.78 652.41L1411.73 689.91L1411.73 764.91L1346.78 802.41L1281.82 764.91L1281.82 689.91zM1346.78 1102.41L1411.73 1139.91L1411.73 1214.91L1346.78 1252.41L1281.82 1214.91L1281.82 1139.91zM1476.68 -22.59L1541.64 14.91L1541.64 89.91L1476.68 127.41L1411.73 89.91L1411.73 14.91zM1541.64 89.91L1606.59 127.41L1606.59 202.41L1541.64 239.91L1476.68 202.41L1476.68 127.41zM1541.64 539.91L1606.59 577.41L1606.59 652.41L1541.64 689.91L1476.68 652.41L1476.68 577.41zM1541.64 764.91L1606.59 802.41L1606.59 877.41L1541.64 914.91L1476.68 877.41L1476.68 802.41z" stroke="#03305d" stroke-width="2"></path><path d="M40.2 -22.59 a7.5 7.5 0 1 0 15 0 a7.5 7.5 0 1 0 -15 0zM105.15 14.91 a7.5 7.5 0 1 0 15 0 a7.5 7.5 0 1 0 -15 0zM105.15 89.91 a7.5 7.5 0 1 0 15 0 a7.5 7.5 0 1 0 -15 0zM40.2 127.41 a7.5 7.5 0 1 0 15 0 a7.5 7.5 0 1 0 -15 0zM-24.75 89.91 a7.5 7.5 0 1 0 15 0 a7.5 7.5 0 1 0 -15 0zM-24.75 14.91 a7.5 7.5 0 1 0 15 0 a7.5 7.5 0 1 0 -15 0zM40.2 877.41 a7.5 7.5 0 1 0 15 0 a7.5 7.5 0 1 0 -15 0zM105.15 914.91 a7.5 7.5 0 1 0 15 0 a7.5 7.5 0 1 0 -15 0zM105.15 989.91 a7.5 7.5 0 1 0 15 0 a7.5 7.5 0 1 0 -15 0zM40.2 1027.41 a7.5 7.5 0 1 0 15 0 a7.5 7.5 0 1 0 -15 0zM-24.75 989.91 a7.5 7.5 0 1 0 15 0 a7.5 7.5 0 1 0 -15 0zM-24.75 914.91 a7.5 7.5 0 1 0 15 0 a7.5 7.5 0 1 0 -15 0zM170.11 202.41 a7.5 7.5 0 1 0 15 0 a7.5 7.5 0 1 0 -15 0zM235.06 239.91 a7.5 7.5 0 1 0 15 0 a7.5 7.5 0 1 0 -15 0zM235.06 314.91 a7.5 7.5 0 1 0 15 0 a7.5 7.5 0 1 0 -15 0zM170.11 352.41 a7.5 7.5 0 1 0 15 0 a7.5 7.5 0 1 0 -15 0zM105.15 314.91 a7.5 7.5 0 1 0 15 0 a7.5 7.5 0 1 0 -15 0zM105.15 239.91 a7.5 7.5 0 1 0 15 0 a7.5 7.5 0 1 0 -15 0zM300.01 352.41 a7.5 7.5 0 1 0 15 0 a7.5 7.5 0 1 0 -15 0zM300.01 427.41 a7.5 7.5 0 1 0 15 0 a7.5 7.5 0 1 0 -15 0zM235.06 464.91 a7.5 7.5 0 1 0 15 0 a7.5 7.5 0 1 0 -15 0zM170.11 427.41 a7.5 7.5 0 1 0 15 0 a7.5 7.5 0 1 0 -15 0zM235.06 764.91 a7.5 7.5 0 1 0 15 0 a7.5 7.5 0 1 0 -15 0zM300.01 802.41 a7.5 7.5 0 1 0 15 0 a7.5 7.5 0 1 0 -15 0zM300.01 877.41 a7.5 7.5 0 1 0 15 0 a7.5 7.5 0 1 0 -15 0zM235.06 914.91 a7.5 7.5 0 1 0 15 0 a7.5 7.5 0 1 0 -15 0zM170.11 877.41 a7.5 7.5 0 1 0 15 0 a7.5 7.5 0 1 0 -15 0zM170.11 802.41 a7.5 7.5 0 1 0 15 0 a7.5 7.5 0 1 0 -15 0zM235.06 989.91 a7.5 7.5 0 1 0 15 0 a7.5 7.5 0 1 0 -15 0zM170.11 1027.41 a7.5 7.5 0 1 0 15 0 a7.5 7.5 0 1 0 -15 0zM300.01 1027.41 a7.5 7.5 0 1 0 15 0 a7.5 7.5 0 1 0 -15 0zM300.01 1102.41 a7.5 7.5 0 1 0 15 0 a7.5 7.5 0 1 0 -15 0zM235.06 1139.91 a7.5 7.5 0 1 0 15 0 a7.5 7.5 0 1 0 -15 0zM170.11 1102.41 a7.5 7.5 0 1 0 15 0 a7.5 7.5 0 1 0 -15 0zM364.97 464.91 a7.5 7.5 0 1 0 15 0 a7.5 7.5 0 1 0 -15 0zM364.97 539.91 a7.5 7.5 0 1 0 15 0 a7.5 7.5 0 1 0 -15 0zM300.01 577.41 a7.5 7.5 0 1 0 15 0 a7.5 7.5 0 1 0 -15 0zM235.06 539.91 a7.5 7.5 0 1 0 15 0 a7.5 7.5 0 1 0 -15 0zM429.92 577.41 a7.5 7.5 0 1 0 15 0 a7.5 7.5 0 1 0 -15 0zM429.92 652.41 a7.5 7.5 0 1 0 15 0 a7.5 7.5 0 1 0 -15 0zM364.97 689.91 a7.5 7.5 0 1 0 15 0 a7.5 7.5 0 1 0 -15 0zM300.01 652.41 a7.5 7.5 0 1 0 15 0 a7.5 7.5 0 1 0 -15 0zM429.92 -22.59 a7.5 7.5 0 1 0 15 0 a7.5 7.5 0 1 0 -15 0zM494.88 14.91 a7.5 7.5 0 1 0 15 0 a7.5 7.5 0 1 0 -15 0zM494.88 89.91 a7.5 7.5 0 1 0 15 0 a7.5 7.5 0 1 0 -15 0zM429.92 127.41 a7.5 7.5 0 1 0 15 0 a7.5 7.5 0 1 0 -15 0zM364.97 89.91 a7.5 7.5 0 1 0 15 0 a7.5 7.5 0 1 0 -15 0zM364.97 14.91 a7.5 7.5 0 1 0 15 0 a7.5 7.5 0 1 0 -15 0zM494.88 314.91 a7.5 7.5 0 1 0 15 0 a7.5 7.5 0 1 0 -15 0zM559.83 352.41 a7.5 7.5 0 1 0 15 0 a7.5 7.5 0 1 0 -15 0zM559.83 427.41 a7.5 7.5 0 1 0 15 0 a7.5 7.5 0 1 0 -15 0zM494.88 464.91 a7.5 7.5 0 1 0 15 0 a7.5 7.5 0 1 0 -15 0zM429.92 427.41 a7.5 7.5 0 1 0 15 0 a7.5 7.5 0 1 0 -15 0zM429.92 352.41 a7.5 7.5 0 1 0 15 0 a7.5 7.5 0 1 0 -15 0zM494.88 539.91 a7.5 7.5 0 1 0 15 0 a7.5 7.5 0 1 0 -15 0zM559.83 577.41 a7.5 7.5 0 1 0 15 0 a7.5 7.5 0 1 0 -15 0zM559.83 652.41 a7.5 7.5 0 1 0 15 0 a7.5 7.5 0 1 0 -15 0zM494.88 689.91 a7.5 7.5 0 1 0 15 0 a7.5 7.5 0 1 0 -15 0zM494.88 764.91 a7.5 7.5 0 1 0 15 0 a7.5 7.5 0 1 0 -15 0zM429.92 802.41 a7.5 7.5 0 1 0 15 0 a7.5 7.5 0 1 0 -15 0zM364.97 764.91 a7.5 7.5 0 1 0 15 0 a7.5 7.5 0 1 0 -15 0zM429.92 1102.41 a7.5 7.5 0 1 0 15 0 a7.5 7.5 0 1 0 -15 0zM494.88 1139.91 a7.5 7.5 0 1 0 15 0 a7.5 7.5 0 1 0 -15 0zM494.88 1214.91 a7.5 7.5 0 1 0 15 0 a7.5 7.5 0 1 0 -15 0zM429.92 1252.41 a7.5 7.5 0 1 0 15 0 a7.5 7.5 0 1 0 -15 0zM364.97 1214.91 a7.5 7.5 0 1 0 15 0 a7.5 7.5 0 1 0 -15 0zM364.97 1139.91 a7.5 7.5 0 1 0 15 0 a7.5 7.5 0 1 0 -15 0zM559.83 202.41 a7.5 7.5 0 1 0 15 0 a7.5 7.5 0 1 0 -15 0zM624.78 239.91 a7.5 7.5 0 1 0 15 0 a7.5 7.5 0 1 0 -15 0zM624.78 314.91 a7.5 7.5 0 1 0 15 0 a7.5 7.5 0 1 0 -15 0zM494.88 239.91 a7.5 7.5 0 1 0 15 0 a7.5 7.5 0 1 0 -15 0zM559.83 877.41 a7.5 7.5 0 1 0 15 0 a7.5 7.5 0 1 0 -15 0zM624.78 914.91 a7.5 7.5 0 1 0 15 0 a7.5 7.5 0 1 0 -15 0zM624.78 989.91 a7.5 7.5 0 1 0 15 0 a7.5 7.5 0 1 0 -15 0zM559.83 1027.41 a7.5 7.5 0 1 0 15 0 a7.5 7.5 0 1 0 -15 0zM494.88 989.91 a7.5 7.5 0 1 0 15 0 a7.5 7.5 0 1 0 -15 0zM494.88 914.91 a7.5 7.5 0 1 0 15 0 a7.5 7.5 0 1 0 -15 0zM689.74 -22.59 a7.5 7.5 0 1 0 15 0 a7.5 7.5 0 1 0 -15 0zM754.69 14.91 a7.5 7.5 0 1 0 15 0 a7.5 7.5 0 1 0 -15 0zM754.69 89.91 a7.5 7.5 0 1 0 15 0 a7.5 7.5 0 1 0 -15 0zM689.74 127.41 a7.5 7.5 0 1 0 15 0 a7.5 7.5 0 1 0 -15 0zM624.78 89.91 a7.5 7.5 0 1 0 15 0 a7.5 7.5 0 1 0 -15 0zM624.78 14.91 a7.5 7.5 0 1 0 15 0 a7.5 7.5 0 1 0 -15 0zM754.69 764.91 a7.5 7.5 0 1 0 15 0 a7.5 7.5 0 1 0 -15 0zM819.65 802.41 a7.5 7.5 0 1 0 15 0 a7.5 7.5 0 1 0 -15 0zM819.65 877.41 a7.5 7.5 0 1 0 15 0 a7.5 7.5 0 1 0 -15 0zM754.69 914.91 a7.5 7.5 0 1 0 15 0 a7.5 7.5 0 1 0 -15 0zM689.74 877.41 a7.5 7.5 0 1 0 15 0 a7.5 7.5 0 1 0 -15 0zM689.74 802.41 a7.5 7.5 0 1 0 15 0 a7.5 7.5 0 1 0 -15 0zM754.69 989.91 a7.5 7.5 0 1 0 15 0 a7.5 7.5 0 1 0 -15 0zM689.74 1027.41 a7.5 7.5 0 1 0 15 0 a7.5 7.5 0 1 0 -15 0zM884.6 764.91 a7.5 7.5 0 1 0 15 0 a7.5 7.5 0 1 0 -15 0zM949.55 802.41 a7.5 7.5 0 1 0 15 0 a7.5 7.5 0 1 0 -15 0zM949.55 877.41 a7.5 7.5 0 1 0 15 0 a7.5 7.5 0 1 0 -15 0zM884.6 914.91 a7.5 7.5 0 1 0 15 0 a7.5 7.5 0 1 0 -15 0zM819.64 877.41 a7.5 7.5 0 1 0 15 0 a7.5 7.5 0 1 0 -15 0zM819.64 802.41 a7.5 7.5 0 1 0 15 0 a7.5 7.5 0 1 0 -15 0zM949.55 1102.41 a7.5 7.5 0 1 0 15 0 a7.5 7.5 0 1 0 -15 0zM1014.51 1139.91 a7.5 7.5 0 1 0 15 0 a7.5 7.5 0 1 0 -15 0zM1014.51 1214.91 a7.5 7.5 0 1 0 15 0 a7.5 7.5 0 1 0 -15 0zM949.55 1252.41 a7.5 7.5 0 1 0 15 0 a7.5 7.5 0 1 0 -15 0zM884.6 1214.91 a7.5 7.5 0 1 0 15 0 a7.5 7.5 0 1 0 -15 0zM884.6 1139.91 a7.5 7.5 0 1 0 15 0 a7.5 7.5 0 1 0 -15 0zM1144.41 764.91 a7.5 7.5 0 1 0 15 0 a7.5 7.5 0 1 0 -15 0zM1209.37 802.41 a7.5 7.5 0 1 0 15 0 a7.5 7.5 0 1 0 -15 0zM1209.37 877.41 a7.5 7.5 0 1 0 15 0 a7.5 7.5 0 1 0 -15 0zM1144.41 914.91 a7.5 7.5 0 1 0 15 0 a7.5 7.5 0 1 0 -15 0zM1079.46 877.41 a7.5 7.5 0 1 0 15 0 a7.5 7.5 0 1 0 -15 0zM1079.46 802.41 a7.5 7.5 0 1 0 15 0 a7.5 7.5 0 1 0 -15 0zM1144.41 989.91 a7.5 7.5 0 1 0 15 0 a7.5 7.5 0 1 0 -15 0zM1209.37 1027.41 a7.5 7.5 0 1 0 15 0 a7.5 7.5 0 1 0 -15 0zM1209.37 1102.41 a7.5 7.5 0 1 0 15 0 a7.5 7.5 0 1 0 -15 0zM1144.41 1139.91 a7.5 7.5 0 1 0 15 0 a7.5 7.5 0 1 0 -15 0zM1079.46 1102.41 a7.5 7.5 0 1 0 15 0 a7.5 7.5 0 1 0 -15 0zM1079.46 1027.41 a7.5 7.5 0 1 0 15 0 a7.5 7.5 0 1 0 -15 0zM1144.41 1214.91 a7.5 7.5 0 1 0 15 0 a7.5 7.5 0 1 0 -15 0zM1079.46 1252.41 a7.5 7.5 0 1 0 15 0 a7.5 7.5 0 1 0 -15 0zM1274.32 89.91 a7.5 7.5 0 1 0 15 0 a7.5 7.5 0 1 0 -15 0zM1339.27 127.41 a7.5 7.5 0 1 0 15 0 a7.5 7.5 0 1 0 -15 0zM1339.27 202.41 a7.5 7.5 0 1 0 15 0 a7.5 7.5 0 1 0 -15 0zM1274.32 239.91 a7.5 7.5 0 1 0 15 0 a7.5 7.5 0 1 0 -15 0zM1209.37 202.41 a7.5 7.5 0 1 0 15 0 a7.5 7.5 0 1 0 -15 0zM1209.37 127.41 a7.5 7.5 0 1 0 15 0 a7.5 7.5 0 1 0 -15 0zM1274.32 314.91 a7.5 7.5 0 1 0 15 0 a7.5 7.5 0 1 0 -15 0zM1339.27 352.41 a7.5 7.5 0 1 0 15 0 a7.5 7.5 0 1 0 -15 0zM1339.27 427.41 a7.5 7.5 0 1 0 15 0 a7.5 7.5 0 1 0 -15 0zM1274.32 464.91 a7.5 7.5 0 1 0 15 0 a7.5 7.5 0 1 0 -15 0zM1209.37 427.41 a7.5 7.5 0 1 0 15 0 a7.5 7.5 0 1 0 -15 0zM1209.37 352.41 a7.5 7.5 0 1 0 15 0 a7.5 7.5 0 1 0 -15 0zM1274.32 1139.91 a7.5 7.5 0 1 0 15 0 a7.5 7.5 0 1 0 -15 0zM1274.32 1214.91 a7.5 7.5 0 1 0 15 0 a7.5 7.5 0 1 0 -15 0zM1209.37 1252.41 a7.5 7.5 0 1 0 15 0 a7.5 7.5 0 1 0 -15 0zM1339.28 652.41 a7.5 7.5 0 1 0 15 0 a7.5 7.5 0 1 0 -15 0zM1404.23 689.91 a7.5 7.5 0 1 0 15 0 a7.5 7.5 0 1 0 -15 0zM1404.23 764.91 a7.5 7.5 0 1 0 15 0 a7.5 7.5 0 1 0 -15 0zM1339.28 802.41 a7.5 7.5 0 1 0 15 0 a7.5 7.5 0 1 0 -15 0zM1274.32 764.91 a7.5 7.5 0 1 0 15 0 a7.5 7.5 0 1 0 -15 0zM1274.32 689.91 a7.5 7.5 0 1 0 15 0 a7.5 7.5 0 1 0 -15 0zM1339.28 1102.41 a7.5 7.5 0 1 0 15 0 a7.5 7.5 0 1 0 -15 0zM1404.23 1139.91 a7.5 7.5 0 1 0 15 0 a7.5 7.5 0 1 0 -15 0zM1404.23 1214.91 a7.5 7.5 0 1 0 15 0 a7.5 7.5 0 1 0 -15 0zM1339.28 1252.41 a7.5 7.5 0 1 0 15 0 a7.5 7.5 0 1 0 -15 0zM1469.18 -22.59 a7.5 7.5 0 1 0 15 0 a7.5 7.5 0 1 0 -15 0zM1534.14 14.91 a7.5 7.5 0 1 0 15 0 a7.5 7.5 0 1 0 -15 0zM1534.14 89.91 a7.5 7.5 0 1 0 15 0 a7.5 7.5 0 1 0 -15 0zM1469.18 127.41 a7.5 7.5 0 1 0 15 0 a7.5 7.5 0 1 0 -15 0zM1404.23 89.91 a7.5 7.5 0 1 0 15 0 a7.5 7.5 0 1 0 -15 0zM1404.23 14.91 a7.5 7.5 0 1 0 15 0 a7.5 7.5 0 1 0 -15 0zM1599.09 127.41 a7.5 7.5 0 1 0 15 0 a7.5 7.5 0 1 0 -15 0zM1599.09 202.41 a7.5 7.5 0 1 0 15 0 a7.5 7.5 0 1 0 -15 0zM1534.14 239.91 a7.5 7.5 0 1 0 15 0 a7.5 7.5 0 1 0 -15 0zM1469.18 202.41 a7.5 7.5 0 1 0 15 0 a7.5 7.5 0 1 0 -15 0zM1534.14 539.91 a7.5 7.5 0 1 0 15 0 a7.5 7.5 0 1 0 -15 0zM1599.09 577.41 a7.5 7.5 0 1 0 15 0 a7.5 7.5 0 1 0 -15 0zM1599.09 652.41 a7.5 7.5 0 1 0 15 0 a7.5 7.5 0 1 0 -15 0zM1534.14 689.91 a7.5 7.5 0 1 0 15 0 a7.5 7.5 0 1 0 -15 0zM1469.18 652.41 a7.5 7.5 0 1 0 15 0 a7.5 7.5 0 1 0 -15 0zM1469.18 577.41 a7.5 7.5 0 1 0 15 0 a7.5 7.5 0 1 0 -15 0zM1534.14 764.91 a7.5 7.5 0 1 0 15 0 a7.5 7.5 0 1 0 -15 0zM1599.09 802.41 a7.5 7.5 0 1 0 15 0 a7.5 7.5 0 1 0 -15 0zM1599.09 877.41 a7.5 7.5 0 1 0 15 0 a7.5 7.5 0 1 0 -15 0zM1534.14 914.91 a7.5 7.5 0 1 0 15 0 a7.5 7.5 0 1 0 -15 0zM1469.18 877.41 a7.5 7.5 0 1 0 15 0 a7.5 7.5 0 1 0 -15 0zM1469.18 802.41 a7.5 7.5 0 1 0 15 0 a7.5 7.5 0 1 0 -15 0z" fill="#03305d"></path><path d="M80.24 640.85L123.55 665.85L123.55 715.85L80.24 740.85L36.94 715.85L36.94 665.85zM80.24 940.85L123.55 965.85L123.55 1015.85L80.24 1040.85L36.94 1015.85L36.94 965.85zM123.55 565.85L166.85 590.85L166.85 640.85L123.55 665.85L80.24 640.85L80.24 590.85zM123.55 715.85L166.85 740.85L166.85 790.85L123.55 815.85L80.24 790.85L80.24 740.85zM166.85 790.85L210.15 815.85L210.15 865.85L166.85 890.85L123.55 865.85L123.55 815.85zM123.55 865.85L166.85 890.85L166.85 940.85L123.55 965.85L80.24 940.85L80.24 890.85zM123.55 1015.85L166.85 1040.85L166.85 1090.85L123.55 1115.85L80.24 1090.85L80.24 1040.85zM253.45 40.85L296.75 65.85L296.75 115.85L253.45 140.85L210.15 115.85L210.15 65.85zM210.15 565.85L253.45 590.85L253.45 640.85L210.15 665.85L166.85 640.85L166.85 590.85zM210.15 715.85L253.45 740.85L253.45 790.85L210.15 815.85L166.85 790.85L166.85 740.85zM296.75 -34.15L340.06 -9.15L340.06 40.85L296.75 65.85L253.45 40.85L253.45 -9.15zM340.06 190.85L383.36 215.85L383.36 265.85L340.06 290.85L296.75 265.85L296.75 215.85zM340.06 340.85L383.36 365.85L383.36 415.85L340.06 440.85L296.75 415.85L296.75 365.85zM340.06 640.85L383.36 665.85L383.36 715.85L340.06 740.85L296.75 715.85L296.75 665.85zM340.06 940.85L383.36 965.85L383.36 1015.85L340.06 1040.85L296.75 1015.85L296.75 965.85zM426.66 190.85L469.97 215.85L469.97 265.85L426.66 290.85L383.36 265.85L383.36 215.85zM469.97 115.85L513.27 140.85L513.27 190.85L469.97 215.85L426.66 190.85L426.66 140.85zM513.27 640.85L556.57 665.85L556.57 715.85L513.27 740.85L469.97 715.85L469.97 665.85zM599.87 40.85L643.17 65.85L643.17 115.85L599.87 140.85L556.57 115.85L556.57 65.85zM599.87 340.85L643.17 365.85L643.17 415.85L599.87 440.85L556.57 415.85L556.57 365.85zM599.87 940.85L643.17 965.85L643.17 1015.85L599.87 1040.85L556.57 1015.85L556.57 965.85zM556.57 1015.85L599.87 1040.85L599.87 1090.85L556.57 1115.85L513.27 1090.85L513.27 1040.85zM686.48 190.85L729.78 215.85L729.78 265.85L686.48 290.85L643.17 265.85L643.17 215.85zM643.17 415.85L686.48 440.85L686.48 490.85L643.17 515.85L599.87 490.85L599.87 440.85zM643.17 1015.85L686.48 1040.85L686.48 1090.85L643.17 1115.85L599.87 1090.85L599.87 1040.85zM729.78 -34.15L773.08 -9.15L773.08 40.85L729.78 65.85L686.48 40.85L686.48 -9.15zM729.78 1015.85L773.08 1040.85L773.08 1090.85L729.78 1115.85L686.48 1090.85L686.48 1040.85zM859.69 40.85L902.99 65.85L902.99 115.85L859.69 140.85L816.38 115.85L816.38 65.85zM816.38 115.85L859.69 140.85L859.69 190.85L816.38 215.85L773.08 190.85L773.08 140.85zM859.69 340.85L902.99 365.85L902.99 415.85L859.69 440.85L816.38 415.85L816.38 365.85zM816.38 415.85L859.69 440.85L859.69 490.85L816.38 515.85L773.08 490.85L773.08 440.85zM816.38 865.85L859.69 890.85L859.69 940.85L816.38 965.85L773.08 940.85L773.08 890.85zM816.38 1015.85L859.69 1040.85L859.69 1090.85L816.38 1115.85L773.08 1090.85L773.08 1040.85zM946.29 40.85L989.6 65.85L989.6 115.85L946.29 140.85L902.99 115.85L902.99 65.85zM946.29 190.85L989.6 215.85L989.6 265.85L946.29 290.85L902.99 265.85L902.99 215.85zM946.29 340.85L989.6 365.85L989.6 415.85L946.29 440.85L902.99 415.85L902.99 365.85zM902.99 565.85L946.29 590.85L946.29 640.85L902.99 665.85L859.69 640.85L859.69 590.85zM946.29 640.85L989.6 665.85L989.6 715.85L946.29 740.85L902.99 715.85L902.99 665.85zM989.6 -34.15L1032.9 -9.15L1032.9 40.85L989.6 65.85L946.29 40.85L946.29 -9.15zM989.6 265.85L1032.9 290.85L1032.9 340.85L989.6 365.85L946.29 340.85L946.29 290.85zM1032.9 340.85L1076.2 365.85L1076.2 415.85L1032.9 440.85L989.6 415.85L989.6 365.85zM1076.2 565.85L1119.5 590.85L1119.5 640.85L1076.2 665.85L1032.9 640.85L1032.9 590.85zM1162.81 -34.15L1206.11 -9.15L1206.11 40.85L1162.81 65.85L1119.5 40.85L1119.5 -9.15zM1206.11 790.85L1249.41 815.85L1249.41 865.85L1206.11 890.85L1162.81 865.85L1162.81 815.85zM1206.11 940.85L1249.41 965.85L1249.41 1015.85L1206.11 1040.85L1162.81 1015.85L1162.81 965.85zM1249.41 565.85L1292.71 590.85L1292.71 640.85L1249.41 665.85L1206.11 640.85L1206.11 590.85zM1292.71 640.85L1336.02 665.85L1336.02 715.85L1292.71 740.85L1249.41 715.85L1249.41 665.85zM1292.71 940.85L1336.02 965.85L1336.02 1015.85L1292.71 1040.85L1249.41 1015.85L1249.41 965.85zM1336.02 415.85L1379.32 440.85L1379.32 490.85L1336.02 515.85L1292.71 490.85L1292.71 440.85zM1379.32 790.85L1422.62 815.85L1422.62 865.85L1379.32 890.85L1336.02 865.85L1336.02 815.85zM1379.32 940.85L1422.62 965.85L1422.62 1015.85L1379.32 1040.85L1336.02 1015.85L1336.02 965.85zM1465.92 340.85L1509.23 365.85L1509.23 415.85L1465.92 440.85L1422.62 415.85L1422.62 365.85zM1422.62 415.85L1465.92 440.85L1465.92 490.85L1422.62 515.85L1379.32 490.85L1379.32 440.85zM1465.92 640.85L1509.23 665.85L1509.23 715.85L1465.92 740.85L1422.62 715.85L1422.62 665.85zM1465.92 790.85L1509.23 815.85L1509.23 865.85L1465.92 890.85L1422.62 865.85L1422.62 815.85z" stroke="url(#SvgjsLinearGradient1027)" stroke-width="2"></path></g><defs><mask id="SvgjsMask1026"><rect width="1440" height="1080" fill="#ffffff"></rect></mask><linearGradient x1="90" y1="-89.964" x2="1350" y2="1169.964" gradientUnits="userSpaceOnUse" id="SvgjsLinearGradient1027"><stop stop-color="#0e2a47" offset="0"></stop><stop stop-color="rgba(0, 255, 0, 1)" offset="1"></stop></linearGradient></defs></svg>