<?xml version="1.0" encoding="UTF-8" standalone="no"?>
<!-- Created with Inkscape (http://www.inkscape.org/) -->

<svg
   version="1.1"
   id="svg546"
   width="323.79221"
   height="132.74213"
   viewBox="0 0 323.79221 132.74213"
   sodipodi:docname="E-Ciclo-icone-branco.svg"
   inkscape:version="1.2.2 (732a01da63, 2022-12-09)"
   xmlns:inkscape="http://www.inkscape.org/namespaces/inkscape"
   xmlns:sodipodi="http://sodipodi.sourceforge.net/DTD/sodipodi-0.dtd"
   xmlns="http://www.w3.org/2000/svg"
   xmlns:svg="http://www.w3.org/2000/svg">
  <defs
     id="defs550" />
  <sodipodi:namedview
     id="namedview548"
     pagecolor="#505050"
     bordercolor="#eeeeee"
     borderopacity="1"
     inkscape:showpageshadow="0"
     inkscape:pageopacity="0"
     inkscape:pagecheckerboard="0"
     inkscape:deskcolor="#505050"
     showgrid="false"
     inkscape:zoom="1.4849242"
     inkscape:cx="174.41967"
     inkscape:cy="169.03219"
     inkscape:window-width="1280"
     inkscape:window-height="705"
     inkscape:window-x="-8"
     inkscape:window-y="-8"
     inkscape:window-maximized="1"
     inkscape:current-layer="g552" />
  <g
     inkscape:groupmode="layer"
     inkscape:label="Image"
     id="g552"
     transform="translate(-80.205826,-216.2662)">
    <path
       style="fill:#00ff00;fill-opacity:1"
       d="m 126.60018,346.67868 c -21.51523,-6.83946 -38.221824,-24.4963 -44.452669,-46.98105 -2.398053,-8.65367 -2.606257,-23.30828 -0.449406,-31.63184 8.305571,-32.05225 37.144595,-53.67744 68.907335,-51.67076 35.60978,2.24973 62.63644,30.87309 62.56768,66.26409 -0.036,18.51375 -5.19287,32.10466 -16.96445,44.70956 -8.53843,9.14286 -17.39725,15.04413 -28.2599,18.82523 -7.51807,2.61691 -9.42353,2.86848 -21.25829,2.80664 -10.5935,-0.0554 -14.31253,-0.48517 -20.0903,-2.32187 z m 25.69381,-21.86922 c 14.24028,-4.96211 21.15765,-18.99487 16.88534,-34.25407 -2.18408,-7.80074 -8.01275,-12.82081 -24.09346,-20.75103 -7.48253,-3.69002 -13.86364,-6.70913 -14.18023,-6.70913 -0.31659,0 -3.41952,-1.3083 -6.89539,-2.90734 -3.47587,-1.59904 -9.3721,-3.96154 -13.10273,-5.25 -8.28803,-2.86247 -9.09527,-2.18183 -7.1486,6.0275 2.06332,8.70126 7.8374,27.58775 11.74041,38.40185 5.06402,14.0309 7.78473,18.18576 14.93462,22.80695 5.38001,3.47728 6.7564,3.91934 12.16157,3.90598 3.35223,-0.008 7.71654,-0.5801 9.69847,-1.27071 z m -8.65603,-25.46423 c -7.64369,-7.73643 -14.83854,-16.19228 -14.2653,-16.76551 0.6367,-0.6367 18.23043,17.45642 19.70617,20.26551 1.80956,3.44454 0.74178,2.75766 -5.44087,-3.5 z m 34.49934,5.80318 c 4.55542,-4.55542 7.77289,-13.96073 11.57754,-33.84341 1.7774,-9.28855 1.85356,-12.20977 0.31831,-12.20977 -1.76337,0 -23.28835,10.98287 -26.42188,13.48146 l -2.75707,2.19841 4.35739,4.72721 c 2.96186,3.21323 4.93775,4.57543 6.16952,4.25332 0.99667,-0.26064 1.56211,-0.0693 1.25654,0.42508 -0.30558,0.49444 -0.24215,5.85247 0.14094,11.90675 0.74266,11.73662 1.46375,12.95591 5.35871,9.06095 z m 110.43432,2.78484 c -7.93272,-3.84351 -10.73384,-32.38571 -4.39727,-44.8064 4.18335,-8.20004 13.27991,-9.21128 18.68809,-2.07751 1.95681,2.58118 -1.20155,3.5163 -3.6401,1.07775 -3.11834,-3.11834 -8.40111,-2.72641 -10.91933,0.81011 -4.66889,6.55684 -5.12952,28.74758 -0.77574,37.37117 2.87033,5.68532 6.48001,7.03776 10.61815,3.9783 3.43293,-2.53808 5.04506,-2.78222 5.04506,-0.76402 0,4.19308 -9.28565,6.99462 -14.61886,4.4106 z m 24.30636,0.51615 c -0.37813,-0.37813 -0.6875,-12.0875 -0.6875,-26.02084 0,-24.73735 0.0475,-25.33333 2.01688,-25.33333 1.97706,0 2.01161,0.50683 1.75,25.66715 -0.25294,24.32685 -0.70111,28.06529 -3.07938,25.68702 z m 19.02596,-1.36492 c -4.55176,-3.58041 -6.21346,-9.99601 -6.21346,-23.98925 0,-18.16717 3.36864,-25.50205 12.25986,-26.69462 3.39691,-0.45562 4.43614,-0.0999 7.34829,2.51511 2.7024,2.42667 3.14046,3.3006 2.15509,4.2994 -0.98947,1.00296 -1.70217,0.81638 -3.56445,-0.93313 -3.05844,-2.87326 -7.73495,-2.84497 -10.45319,0.0632 -3.32984,3.56255 -4.54845,10.53469 -4.0243,23.02455 0.53488,12.74518 2.32147,17.8792 6.87868,19.76686 2.36838,0.98102 3.38503,0.81397 6.8301,-1.12227 5.17818,-2.9103 6.54511,-1.62641 2.30345,2.1635 -4.00707,3.58033 -9.64073,3.9581 -13.52007,0.90661 z m 24.99158,1.38246 c -0.38777,-0.38778 -0.70504,-12.10504 -0.70504,-26.03838 0,-24.66666 0.0526,-25.33333 2,-25.33333 1.94433,0 2,0.66667 2,23.95228 v 23.95229 l 6.25,0.29771 c 4.75657,0.22658 6.25,0.65614 6.25,1.79772 0,1.17531 -1.63316,1.56242 -7.54496,1.78837 -4.14973,0.15861 -7.86223,-0.0289 -8.25,-0.41666 z m 28.38517,-0.63645 c -7.3053,-3.7447 -10.32924,-26.9229 -5.47376,-41.95574 3.6328,-11.24735 16.07801,-13.2652 20.77438,-3.36833 3.75981,7.92321 4.58655,26.5966 1.6275,36.76011 -1.69207,5.81179 -6.06233,9.8316 -10.66954,9.81396 -2.11683,-0.008 -4.93319,-0.57061 -6.25858,-1.25 z m 10.20517,-4.30337 c 6.33893,-6.33893 6.41984,-34.56415 0.11904,-41.52645 -2.18602,-2.41553 -7.59542,-2.50317 -9.59474,-0.15544 -3.32452,3.90387 -4.31968,8.68423 -4.31968,20.75 0,13.34404 1.21114,18.34102 5.20725,21.48436 3.40198,2.676 5.49426,2.54141 8.58813,-0.55247 z M 234.19048,283.09523 v -25 h 6.5 c 7.75223,0 8.75642,1.76557 1.25,2.19774 l -5.25,0.30226 v 5 c 0,4.91008 0.0584,5.00564 3.25,5.31336 1.7875,0.17235 3.25,0.70633 3.25,1.18664 0,0.48031 -1.4625,1.01429 -3.25,1.18664 l -3.25,0.31336 v 16 16 l 5.25,0.30226 c 7.50642,0.43217 6.50223,2.19774 -1.25,2.19774 h -6.5 z m 22.24377,7.33564 c -3.22344,-1.29956 0.68696,-2.33564 8.81525,-2.33564 7.28087,0 8.94098,0.27851 8.94098,1.5 0,1.2185 -1.54825,1.48518 -8.25,1.42105 -4.5375,-0.0434 -8.8153,-0.30685 -9.50623,-0.58541 z"
       id="path673" />
    <path
       style="fill:#ffffff;fill-opacity:1;stroke-width:0.952381"
       d="M 54.631424,107.75553 C 49.037842,105.12661 43.089435,99.442704 40.421176,94.17715 36.389977,86.221961 25.758062,53.2631 23.328661,41.190476 c -0.581319,-2.888797 -0.449311,-3.095238 1.979245,-3.095238 6.170222,0 44.761192,17.639401 54.448117,24.887484 6.441582,4.819809 8.984738,9.76157 9.560585,18.577758 0.377972,5.786736 0.09575,7.559395 -1.896281,11.910557 -4.436354,9.690273 -11.841522,14.757903 -22.871494,15.651813 -4.669698,0.37845 -6.83938,0.0793 -9.917409,-1.36732 z M 69.403648,86.442142 C 67.626219,83.120986 49.755089,65.165547 48.989224,65.931411 c -0.893773,0.893772 2.538623,5.324627 11.523497,14.875605 7.161018,7.612207 11.38018,10.286338 8.890927,5.635126 z"
       id="path4281"
       transform="translate(80.205826,216.2662)" />
    <path
       style="fill:#ffffff;fill-opacity:1;stroke-width:0.952381"
       d="M 93.851365,87.380952 C 93.565002,85.678571 93.143632,80.428571 92.914989,75.714286 92.550124,68.191342 92.277078,67.107994 90.682824,66.857849 89.683778,66.701093 87.19287,64.847908 85.147474,62.739658 l -3.718903,-3.833182 2.73901,-2.203716 c 3.176025,-2.555323 23.354029,-12.922125 25.118129,-12.904876 0.65477,0.0064 1.19048,0.908604 1.19048,2.004893 0,3.338671 -3.75133,20.8726 -6.20946,29.023399 -2.18902,7.258431 -7.01026,15.650014 -8.991453,15.650014 -0.496788,0 -1.137549,-1.392857 -1.423912,-3.095238 z"
       id="path4283"
       transform="translate(80.205826,216.2662)" />
    <path
       style="fill:#ffffff;fill-opacity:1;stroke-width:0.0841794"
       d="M 34.420603,80.496531 C 34.171528,79.847037 32.188262,73.888572 31.275472,71.047396 26.960859,57.617605 23.458643,45.141647 22.859947,41.068733 c -0.150009,-1.0205 -0.170126,-2.161744 -0.04599,-2.608659 0.132953,-0.478638 0.430436,-0.857096 0.841124,-1.070077 0.78107,-0.405061 2.619453,-0.133399 5.51307,0.814676 4.221615,1.383186 10.00762,3.676591 15.278557,6.055976 2.980008,1.345224 4.805002,2.117583 5.984966,2.53291 1.073166,0.377735 2.07985,0.829678 5.898886,2.648262 6.105937,2.907582 12.765865,6.241296 15.516536,7.767004 10.925013,6.059755 15.333776,10.555668 17.20242,17.542463 0.341159,1.27558 0.727644,3.241657 0.890959,4.532365 0.191498,1.513443 0.203144,1.444371 -0.243537,1.444371 -0.430976,0 -0.38673,0.115241 -0.549445,-1.431049 -0.129823,-1.23372 -0.466019,-3.108481 -0.761539,-4.246649 -0.76086,-2.930395 -2.117373,-5.614873 -3.936927,-7.791002 C 82.073959,64.418815 78.79495,61.967922 72.934433,58.652747 59.049369,50.79825 34.74091,40.021866 26.979491,38.280081 c -1.121597,-0.251704 -3.042954,-0.270936 -3.479031,-0.03482 -0.616703,0.333912 -0.637172,0.826842 -0.136918,3.297265 1.473142,7.274875 7.059109,25.977614 11.559009,38.70147 l 0.171182,0.484031 h -0.292177 c -0.241098,0 -0.307698,-0.04047 -0.380953,-0.231493 z"
       id="path5011"
       transform="translate(80.205826,216.2662)" />
    <path
       style="fill:#ffffff;fill-opacity:1;stroke-width:0.0420897"
       d="m 85.415003,63.629088 c -0.187485,-0.190982 -1.245687,-1.332139 -2.35156,-2.535904 -1.105873,-1.203765 -2.094581,-2.275933 -2.19713,-2.382596 l -0.186452,-0.193933 1.471276,-1.175216 c 0.809201,-0.646369 1.71497,-1.337481 2.012819,-1.535804 C 89.00237,52.583972 107.657,43.13908 109.72301,42.865014 c 0.26135,-0.03467 0.47356,0.03387 0.67872,0.219215 0.3485,0.314849 0.47541,0.87513 0.47547,2.099053 9e-5,1.482698 -0.22808,3.347175 -0.8344,6.818529 -0.5327,3.049892 -1.57464,8.292949 -2.33575,11.753546 l -0.0486,0.220971 h -0.27009 c -0.19874,0 -0.2701,-0.01502 -0.2701,-0.05684 0,-0.03126 0.0764,-0.384894 0.16977,-0.785849 0.57078,-2.450901 1.50149,-6.811462 1.97171,-9.237792 1.02317,-5.279557 1.36434,-7.845389 1.16443,-8.757164 -0.15093,-0.688398 -0.511,-1.206608 -0.91747,-1.320413 -0.26699,-0.07475 -0.55581,-0.01722 -1.29411,0.257806 -4.61921,1.720695 -20.112022,9.774144 -23.599882,12.267652 -0.180458,0.129012 -0.976993,0.75581 -1.770078,1.392886 l -1.441973,1.158319 0.199287,0.215242 c 0.555776,0.600271 4.115551,4.242813 4.428159,4.531116 l 0.360985,0.332918 -0.316602,0.0011 -0.316602,0.0011 -0.340881,-0.34724 z"
       id="path5013"
       transform="translate(80.205826,216.2662)" />
    <path
       style="fill:#ffffff;fill-opacity:1;stroke-width:0.0595238"
       d="M 94.60835,90.724638 C 93.571757,90.07253 93.095761,87.518876 92.620392,80.059524 92.352409,75.854408 92.170337,69.634164 92.305153,69.289788 c 0.131695,-0.336403 0.345951,2.030268 0.581614,6.424498 0.306369,5.712637 0.651773,9.962617 0.954894,11.749376 0.196946,1.160904 0.630417,2.329419 1.035095,2.790322 0.163132,0.185797 0.233428,0.222207 0.429008,0.222207 1.441551,0 4.558475,-4.597945 7.061406,-10.416667 1.1612,-2.699507 1.87358,-4.83372 2.9306,-8.779762 0.31204,-1.164862 1.43481,-5.68085 1.66858,-6.711309 l 0.13166,-0.580358 h 0.26052 c 0.15689,0 0.26052,0.02727 0.26052,0.06856 0,0.149813 -0.69569,3.121357 -1.2306,5.256327 -2.02921,8.099178 -4.04152,13.433573 -6.396846,16.95729 -0.722093,1.080297 -1.295274,1.774073 -2.246528,2.719188 -1.290718,1.28239 -2.013421,1.781246 -2.648289,1.82802 -0.227777,0.01678 -0.351588,-0.0068 -0.488437,-0.09284 z"
       id="path5015"
       transform="translate(80.205826,216.2662)" />
    <path
       style="fill:#ffffff;fill-opacity:1;stroke-width:0.0595238"
       d="M 90.178572,67.387632 C 89.559652,67.1873 88.896211,66.795023 88.079103,66.146263 87.65491,65.809466 86.384824,64.649057 85.984944,64.232942 l -0.235295,-0.244847 h 0.316614 c 0.300997,0 0.33609,0.01709 0.711485,0.346542 1.07141,0.940276 2.348316,1.862588 3.109118,2.245722 0.230837,0.116248 0.621102,0.261688 0.867256,0.323201 0.246155,0.06151 0.558715,0.185405 0.69458,0.275315 l 0.247026,0.163474 -0.327031,0.0763 c -0.445999,0.104061 -0.801411,0.0948 -1.190125,-0.03102 z"
       id="path5017"
       transform="translate(80.205826,216.2662)" />
    <path
       style="fill:#ffffff;fill-opacity:1;stroke-width:0.0595238"
       d=""
       id="path5019"
       transform="translate(80.205826,216.2662)" />
    <path
       style="fill:#ffffff;fill-opacity:1;stroke-width:0.0595238"
       d="m 59.613095,109.72332 c -2.75986,-0.21534 -4.358662,-0.77221 -7.276785,-2.53455 l -0.788691,-0.47631 v -0.31582 -0.31582 l 0.788691,0.47447 c 1.752691,1.05442 3.677034,1.91167 5.123493,2.28239 1.432323,0.3671 1.930546,0.41836 4.058054,0.41752 5.977941,-0.002 11.227561,-1.25553 15.446429,-3.68737 4.798152,-2.76574 8.344323,-7.028796 10.969352,-13.186877 0.766123,-1.797256 1.164535,-3.09763 1.386017,-4.52381 0.182811,-1.177168 0.175714,-4.776619 -0.0135,-6.845238 -0.02926,-0.319919 -0.02173,-0.374023 0.04351,-0.3125 0.109079,0.102862 0.56262,0.09409 0.669664,-0.01296 0.0768,-0.0768 0.09268,0.02576 0.131388,0.848214 0.05817,1.236188 -0.0019,3.644324 -0.116824,4.685575 -0.584336,5.292724 -2.564332,10.062095 -5.819489,14.017866 -0.769912,0.93562 -2.366046,2.54173 -3.262028,3.28243 -2.680177,2.21566 -5.71564,3.91979 -8.839286,4.96244 -1.737381,0.57992 -4.317612,1.00401 -7.410714,1.21804 -0.770934,0.0533 -4.482975,0.0696 -5.089286,0.0223 z"
       id="path5021"
       transform="translate(80.205826,216.2662)" />
    <path
       style="fill:#ffffff;fill-opacity:1;stroke-width:0.0595238"
       d="M 69.647288,88.586453 C 69.747693,88.425679 69.604795,87.977888 69.176074,87.109832 68.669703,86.084555 68.076007,85.29298 66.254342,83.214286 61.790497,78.12061 53.437567,69.610213 50.42893,67.090537 49.258615,66.11042 48.878868,66.025078 49.25177,66.825986 c 0.646469,1.388466 4.558046,6.106321 9.195293,11.090681 2.905315,3.122787 8.471132,8.744475 9.691945,9.789234 0.302348,0.258746 0.538788,0.481383 0.525421,0.494749 -0.07137,0.07137 -1.745128,-1.22133 -2.790505,-2.155194 -2.331546,-2.082836 -5.48186,-5.327597 -9.741498,-10.033551 -5.192726,-5.73681 -7.561467,-8.987702 -7.210533,-9.895833 0.08982,-0.232423 0.229477,-0.208283 0.718378,0.12417 3.150087,2.142057 15.941234,15.042829 19.029859,19.192951 0.503912,0.677097 0.822383,1.208158 1.083043,1.806008 0.422233,0.968437 0.4283,1.401094 0.0202,1.44039 -0.178752,0.01721 -0.18987,0.009 -0.126085,-0.09314 z"
       id="path5023"
       transform="translate(80.205826,216.2662)" />
    <path
       style="fill:#ffffff;fill-opacity:1;stroke-width:0.0841794"
       d="m 49.903676,105.62408 c -2.191344,-1.45694 -3.199478,-2.26572 -4.746718,-3.8081 -3.656351,-3.644848 -5.923236,-7.970148 -9.81056,-18.718903 -0.458069,-1.266597 -0.832853,-2.317787 -0.832853,-2.335978 0,-0.01819 0.127617,-0.03307 0.283593,-0.03307 h 0.283592 l 0.611857,1.704633 c 2.241536,6.244911 4.003093,10.584262 5.061253,12.46769 2.122283,3.777469 5.987342,7.889578 10.02737,10.668308 0.685401,0.47142 0.73657,0.52676 0.73657,0.79662 0,0.1595 -0.0142,0.29 -0.03155,0.29 -0.01735,0 -0.729501,-0.46404 -1.582553,-1.03119 z"
       id="path5025"
       transform="translate(80.205826,216.2662)" />
  </g>
</svg>
