<?xml version="1.0" encoding="UTF-8" standalone="no"?>
<!-- Created with Inkscape (http://www.inkscape.org/) -->

<svg
   width="31.888863mm"
   height="31.92091mm"
   viewBox="0 0 31.888863 31.92091"
   version="1.1"
   id="svg5"
   xml:space="preserve"
   inkscape:version="1.2.2 (732a01da63, 2022-12-09)"
   sodipodi:docname="e-ciclo-vetor-2.svg"
   xmlns:inkscape="http://www.inkscape.org/namespaces/inkscape"
   xmlns:sodipodi="http://sodipodi.sourceforge.net/DTD/sodipodi-0.dtd"
   xmlns="http://www.w3.org/2000/svg"
   xmlns:svg="http://www.w3.org/2000/svg"><sodipodi:namedview
     id="namedview7"
     pagecolor="#505050"
     bordercolor="#eeeeee"
     borderopacity="1"
     inkscape:showpageshadow="0"
     inkscape:pageopacity="0"
     inkscape:pagecheckerboard="0"
     inkscape:deskcolor="#505050"
     inkscape:document-units="mm"
     showgrid="false"
     inkscape:zoom="0.35355339"
     inkscape:cx="540.22958"
     inkscape:cy="325.26912"
     inkscape:window-width="1280"
     inkscape:window-height="705"
     inkscape:window-x="-8"
     inkscape:window-y="-8"
     inkscape:window-maximized="1"
     inkscape:current-layer="layer1" /><defs
     id="defs2"><rect
       x="282.84271"
       y="452.54834"
       width="243.24474"
       height="112.42998"
       id="rect4016" /></defs><g
     inkscape:label="Camada 1"
     inkscape:groupmode="layer"
     id="layer1"
     transform="translate(-37.9871,-108.66004)"><path
       id="path302"
       style="fill:#00ff00;stroke-width:0.264583"
       d="m 54.176538,108.66055 c -0.13287,-0.001 -0.265675,-6.3e-4 -0.398425,0.002 -5.734809,0.0971 -11.324583,3.55621 -13.997595,8.97774 -2.0124,4.0816 -2.327879,7.97864 -0.963249,11.90264 1.876089,5.39472 5.923123,9.2035 11.32334,10.65723 1.89889,0.51097 5.711447,0.50743 7.708573,-0.009 2.864081,-0.73945 5.479714,-2.30538 7.656897,-4.58422 2.858072,-2.99154 4.056115,-5.74696 4.334102,-9.96735 0.528637,-8.02552 -4.849395,-14.98952 -12.8788,-16.6765 -0.922547,-0.19383 -1.854755,-0.29271 -2.784843,-0.30231 z m -10.336837,9.04234 c 0.939091,-0.0814 10.536306,4.10192 12.710336,5.56762 2.053316,1.38432 2.930144,2.97702 2.914034,5.29425 -0.01668,2.39815 -1.238135,4.36855 -3.396175,5.47822 -1.236374,0.63573 -3.440824,0.84814 -4.530473,0.43667 -1.336644,-0.50474 -2.581653,-1.47609 -3.340882,-2.60656 -1.135389,-1.69056 -4.882595,-13.6863 -4.419885,-14.14901 0.01173,-0.0117 0.03275,-0.0186 0.06304,-0.0212 z m 20.251994,1.4764 c 0.387086,0 0.269819,0.89178 -0.696598,5.29167 -0.698076,3.17815 -1.103837,4.23144 -2.012797,5.22552 -0.878699,0.961 -1.259977,0.77345 -1.081071,-0.53175 0.08498,-0.61997 0.01643,-1.64041 -0.152446,-2.26757 -0.270753,-1.00551 -0.243738,-1.24769 0.22841,-2.04793 0.579692,-0.98251 0.304353,-1.26453 -0.33848,-0.34675 -0.388631,0.55485 -0.404087,0.5492 -1.470712,-0.57206 -0.592666,-0.62303 -1.077453,-1.20946 -1.077453,-1.30276 0,-0.2214 6.17733,-3.44837 6.601147,-3.44837 z m -14.869893,4.49792 c -0.420057,0 1.490295,2.44233 3.658691,4.67723 1.175146,1.21119 2.221133,2.20193 2.324406,2.20193 0.227584,0 -0.25415,-0.94774 -0.941545,-1.85208 -0.797226,-1.04885 -4.786931,-5.02708 -5.041552,-5.02708 z" /><path
       style="fill:#00ff00;fill-opacity:1;stroke-width:0.534533"
       d="m 197.77493,530.72668 c -18.72521,-1.28689 -37.00051,-13.71051 -46.50737,-31.61588 -4.99408,-9.40593 -7.21087,-17.91065 -7.21087,-27.66456 0,-9.35394 2.0212,-17.45835 6.63155,-26.59052 4.36244,-8.64112 10.94531,-16.47455 18.75878,-22.32241 3.63042,-2.71713 12.25247,-7.09929 17.22705,-8.75565 20.17964,-6.71914 44.02867,-0.65679 59.78104,15.19615 13.07137,13.15481 19.04974,30.87802 16.8356,49.91005 -1.63641,14.0661 -6.40122,23.62124 -17.09984,34.29122 -10.73634,10.70762 -22.73321,16.65785 -35.05026,17.38429 -2.64594,0.15605 -5.41215,0.3485 -6.14713,0.42765 -0.73499,0.0792 -3.98333,-0.038 -7.21855,-0.26034 z m 8.49316,-22.11476 c 4.8655,-1.03081 7.77657,-2.50094 11.26457,-5.68878 5.15982,-4.71578 7.23854,-9.79227 7.23854,-17.67738 0,-10.86511 -4.56246,-16.72343 -18.56419,-23.83691 -12.88678,-6.54704 -34.82081,-15.77725 -39.12904,-16.46616 l -2.29479,-0.36695 0.36717,2.3497 c 0.59602,3.81424 3.79658,15.63167 6.64434,24.53283 8.04861,25.15732 10.41438,29.71708 17.84638,34.39691 5.7252,3.60507 9.59461,4.24662 16.62702,2.75674 z m 25.08167,-17.3571 c 3.87445,-3.40182 6.00192,-9.06804 9.33951,-24.87462 3.54552,-16.79124 3.51813,-17.19474 -1.03626,-15.27045 -7.33146,3.09764 -22.36527,11.53792 -22.36527,12.55629 0,1.1293 6.94238,8.32676 8.03165,8.32676 0.54044,0 1.50632,-0.73547 2.1464,-1.63438 1.71689,-2.41115 1.78853,-1.6193 0.1728,1.90993 -1.3897,3.03549 -1.40645,3.1964 -0.6904,6.62942 0.40363,1.93514 0.75576,5.56302 0.7825,8.06196 0.0267,2.49894 0.0934,4.84421 0.14817,5.2117 0.16709,1.12155 1.57219,0.75048 3.4709,-0.91661 z"
       id="path542"
       transform="scale(0.26458333)" /><text
       xml:space="preserve"
       style="font-size:11.2889px;fill:#00ff00;fill-opacity:1;stroke-width:0.264583"
       x="73.260002"
       y="128.27571"
       id="text2049"><tspan
         sodipodi:role="line"
         id="tspan2047"
         style="font-style:normal;font-variant:normal;font-weight:normal;font-stretch:normal;font-size:11.2889px;font-family:'Sitka Display';-inkscape-font-specification:'Sitka Display';stroke-width:0.264583"
         x="73.260002"
         y="128.27571" /></text><path
       style="fill:#ffffff;fill-opacity:1;stroke-width:0.534533"
       d="m 196.37823,508.40326 c -3.62262,-0.94071 -7.05632,-3.0997 -10.66799,-6.70769 -4.39336,-4.38888 -5.31463,-6.31207 -10.77175,-22.48657 -5.94217,-17.61212 -10.00224,-32.81747 -9.024,-33.79571 1.31078,-1.31078 38.85639,15.00211 47.17007,20.49454 6.15669,4.06742 9.57154,8.65392 10.81836,14.53018 2.50052,11.785 -3.69357,23.05663 -14.77586,26.88826 -3.39662,1.17436 -10.17027,1.74657 -12.74883,1.07699 z m 10.93249,-19.17698 c -0.98049,-1.65745 -5.50965,-6.83981 -10.0648,-11.51634 -8.10006,-8.31592 -11.00991,-10.92457 -11.56583,-10.36866 -1.00528,1.00528 6.26391,10.04751 15.77157,19.61845 5.52453,5.56129 7.22277,6.99419 7.40513,6.24815 0.13015,-0.53243 -0.56558,-2.32415 -1.54607,-3.9816 z"
       id="path2170"
       transform="scale(0.26458333)" /><path
       style="fill:#ffffff;fill-opacity:1;stroke-width:0.534533"
       d="m 192.97436,506.65701 c -4.82133,-2.40924 -9.66755,-7.35131 -12.0288,-12.2667 -3.69025,-7.68195 -14.69924,-42.96068 -14.70404,-47.11967 -0.002,-1.96229 0.56372,-1.90495 7.38841,0.74858 14.41961,5.60654 34.99405,15.21702 39.90512,18.64 3.58557,2.49911 7.09175,6.49314 8.67066,9.87711 1.35515,2.90441 1.49643,3.76493 1.49643,9.11479 0,5.75358 -0.0525,6.01377 -2.01299,9.9806 -4.13852,8.37372 -11.65328,12.70934 -22.02859,12.70934 -2.6503,0 -3.99278,-0.33813 -6.6862,-1.68405 z m 16.02811,-14.2473 c 0,-1.66856 -2.81592,-5.49854 -8.97614,-12.20859 -6.55458,-7.1396 -12.81733,-13.01912 -13.86773,-13.01912 -1.66263,0 -0.0786,2.96551 4.56826,8.55253 3.85937,4.64018 16.81693,17.6396 17.5828,17.6396 0.38105,0 0.69281,-0.43399 0.69281,-0.96442 z"
       id="path2172"
       transform="scale(0.26458333)" /><path
       style="fill:#ffffff;fill-opacity:1;stroke-width:0.534533"
       d="m 192.97436,506.65701 c -4.82133,-2.40924 -9.66755,-7.35131 -12.0288,-12.2667 -3.69025,-7.68195 -14.69924,-42.96068 -14.70404,-47.11967 -0.001,-0.94691 0.28181,-1.46996 0.79506,-1.46996 3.53113,0 40.12175,16.41402 46.49847,20.85854 3.58557,2.49911 7.09175,6.49314 8.67066,9.87711 1.35515,2.90441 1.49643,3.76493 1.49643,9.11479 0,5.75358 -0.0525,6.01377 -2.01299,9.9806 -4.13852,8.37372 -11.65328,12.70934 -22.02859,12.70934 -2.6503,0 -3.99278,-0.33813 -6.6862,-1.68405 z m 16.02811,-14.2603 c 0,-1.62955 -2.95988,-5.58111 -9.56225,-12.76596 -6.39571,-6.95996 -12.28699,-12.44875 -13.36162,-12.44875 -1.58006,0 0.0888,3.07066 4.64826,8.55253 3.85937,4.64018 16.81693,17.6396 17.5828,17.6396 0.38105,0 0.69281,-0.43984 0.69281,-0.97742 z"
       id="path2174"
       transform="scale(0.26458333)" /><path
       style="mix-blend-mode:screen;fill:#ffffff;fill-opacity:1;stroke-width:0.534533"
       d="m 228.03961,486.0243 c -0.18581,-3.45442 -0.47424,-7.3632 -0.64096,-8.68617 -0.23819,-1.89022 -0.0117,-3.03284 1.05739,-5.33497 1.7005,-3.66169 1.01238,-4.93978 -1.22869,-2.28212 -0.80572,0.95547 -1.69801,1.73723 -1.98288,1.73723 -0.47635,0 -2.43362,-1.9417 -6.26775,-6.2179 l -1.50127,-1.67437 3.1388,-1.90672 c 3.86287,-2.34656 20.93334,-11.04781 21.67408,-11.04781 0.8684,0 0.14078,5.30144 -2.23765,16.30327 -2.58358,11.95084 -4.30471,17.42569 -6.5381,20.79749 -1.54528,2.33295 -3.87688,4.59283 -4.73858,4.59283 -0.21811,0 -0.54859,-2.82634 -0.73439,-6.28076 z"
       id="path2176"
       transform="scale(0.26458333)" /><path
       style="fill:#ffffff;fill-opacity:1;stroke-width:0.094493"
       d=""
       id="path2178"
       transform="scale(0.26458333)" /><path
       style="fill:#ffffff;fill-opacity:1;stroke-width:0.094493"
       d=""
       id="path2180"
       transform="scale(0.26458333)" /><path
       style="fill:#ffffff;fill-opacity:1;stroke-width:0.094493"
       d=""
       id="path2182"
       transform="scale(0.26458333)" /><path
       style="fill:#ffffff;fill-opacity:1;stroke-width:0.094493"
       d="m 198.25166,508.93567 c -2.16278,-0.209 -3.31019,-0.55816 -5.72215,-1.74123 -1.74696,-0.85689 -3.59313,-2.02563 -5.14987,-3.26017 -2.06377,-1.63663 -4.62882,-4.50398 -5.6289,-6.29229 -3.14815,-5.62943 -11.60212,-30.79418 -15.01329,-44.68974 -0.2424,-0.98745 -0.46239,-1.86978 -0.48886,-1.96073 -0.0299,-0.10256 0.003,-0.16536 0.0863,-0.16536 0.0965,0 0.26176,0.52652 0.58562,1.86624 1.67561,6.93142 4.96151,17.74003 8.8406,29.08022 3.93485,11.50318 5.03831,14.06907 7.39503,17.19568 0.75439,1.00083 4.10427,4.34004 5.35736,5.3403 2.08347,1.66309 4.42228,3.00341 6.49188,3.72034 1.71782,0.59507 2.18534,0.6612 4.6583,0.65887 6.14922,-0.006 10.71609,-1.22703 14.7908,-3.95527 5.39823,-3.6144 8.81345,-9.14117 9.83775,-15.92019 0.22508,-1.48967 0.22582,-4.70457 0.001,-6.33103 -0.72775,-5.2754 -2.66171,-9.1572 -6.35872,-12.76304 -2.32485,-2.26752 -4.6792,-3.92684 -8.5385,-6.01786 -5.50964,-2.98521 -17.0884,-8.39041 -26.07572,-12.17269 -1.22009,-0.51347 -1.4947,-0.66015 -1.27566,-0.68139 0.26443,-0.0257 2.52713,0.90954 7.55509,3.12255 9.62701,4.23724 19.40271,9.0454 23.26647,11.44358 3.42478,2.1257 6.49111,4.9622 8.34529,7.71975 2.21821,3.29895 3.29762,6.92693 3.45632,11.61693 0.28781,8.50545 -3.32032,15.69647 -10.16917,20.26715 -3.25493,2.17224 -6.23681,3.22833 -10.67771,3.78173 -1.45566,0.18139 -4.37142,0.25345 -5.56976,0.13765 z"
       id="path2184"
       transform="scale(0.26458333)" /><path
       style="fill:#ffffff;fill-opacity:1;stroke-width:0.0236233"
       d=""
       id="path2186"
       transform="scale(0.26458333)" /><path
       style="fill:#ffffff;fill-opacity:1;stroke-width:0.0236233"
       d="m 227.67345,481.15726 c -0.076,-0.47466 -0.18131,-0.9653 -0.33943,-1.58161 -0.56167,-2.18923 -0.70121,-3.07335 -0.62421,-3.95513 0.0877,-1.00444 0.41942,-1.86383 1.33449,-3.45722 0.66784,-1.1629 0.93424,-1.69945 1.15212,-2.32043 0.13257,-0.37785 0.14592,-0.34401 0.033,0.0836 -0.1537,0.58206 -0.36102,1.1247 -0.8199,2.14598 -0.3918,0.87199 -0.53217,1.21943 -0.71695,1.77452 -0.29319,0.88077 -0.37667,1.38684 -0.37601,2.27964 4e-4,0.54743 0.01,0.70906 0.0757,1.28747 0.10186,0.89582 0.19634,1.96302 0.31386,3.54521 0.0341,0.45907 0.0215,0.53572 -0.0326,0.19793 z"
       id="path2188"
       transform="scale(0.26458333)" /><path
       style="fill:#ffffff;fill-opacity:1;stroke-width:0.0236233"
       d="m 227.66036,481.00486 c -0.0479,-0.29855 -0.174,-0.85935 -0.3778,-1.68018 -0.48123,-1.93826 -0.58586,-2.56983 -0.56404,-3.40439 0.0138,-0.52777 0.0599,-0.83868 0.1928,-1.29961 0.20272,-0.70321 0.47108,-1.25812 1.43073,-2.95846 0.31531,-0.55868 0.59228,-1.11804 0.75513,-1.52503 0.0778,-0.19436 0.14173,-0.33743 0.14213,-0.31794 0.001,0.0664 -0.19112,0.67222 -0.32272,1.0158 -0.0722,0.18839 -0.26417,0.6455 -0.42669,1.0158 -0.62165,1.41638 -0.84176,2.00034 -1.00826,2.67496 -0.14057,0.56957 -0.16463,0.80887 -0.16455,1.63628 7e-5,0.66596 0.007,0.79226 0.0746,1.39377 0.11617,1.03075 0.32716,3.50417 0.30705,3.59959 -0.004,0.0211 -0.0217,-0.0466 -0.0384,-0.15059 z"
       id="path2190"
       transform="scale(0.26458333)" /><path
       style="fill:#ffffff;fill-opacity:1;stroke-width:0.0236233"
       d="m 225.28077,471.89861 c -0.26372,-0.0557 -0.6381,-0.28852 -1.10792,-0.68888 -0.70463,-0.60048 -3.25034,-3.24738 -4.65509,-4.84014 -1.03726,-1.17608 -1.84516,-2.18563 -2.08617,-2.60687 -0.10276,-0.17959 -0.10293,-0.18028 -0.0607,-0.24502 0.14621,-0.22398 0.9247,-0.83672 1.54663,-1.21733 0.13594,-0.0832 0.51025,-0.30708 0.83179,-0.49751 l 0.58462,-0.34625 0.28944,7.6e-4 c 0.23389,6e-4 0.28174,0.006 0.24929,0.0295 -0.0221,0.0158 -0.7955,0.48589 -1.7187,1.04458 -0.92321,0.55869 -1.67584,1.02803 -1.67253,1.04297 0.0108,0.0485 2.80484,3.14851 3.90364,4.331 1.4729,1.58509 2.76443,2.85819 3.33552,3.28795 0.20611,0.1551 0.43624,0.27948 0.5171,0.27948 0.15058,0 0.48362,-0.22259 0.92522,-0.61839 0.30733,-0.27544 0.64956,-0.6346 1.14405,-1.2006 0.76575,-0.8765 1.33948,-1.3229 1.70025,-1.3229 0.11043,0 0.14777,0.011 0.20737,0.0612 0.0816,0.0686 0.0985,0.11968 0.027,0.0814 -0.0824,-0.0441 -0.26554,-0.0276 -0.40315,0.0365 -0.45494,0.21165 -1.1536,0.94888 -1.91235,2.01793 -0.54002,0.76086 -0.72493,0.98723 -0.96053,1.17591 -0.0794,0.0636 -0.18835,0.13323 -0.24209,0.15473 -0.12283,0.0491 -0.31664,0.0667 -0.44271,0.04 z"
       id="path2192"
       transform="scale(0.26458333)" /><path
       style="fill:#ffffff;fill-opacity:1;stroke-width:0.0236233"
       d="m 220.35967,461.44781 c 0.0213,-0.0191 1.20639,-0.69133 1.88789,-1.07096 3.2617,-1.81696 7.37819,-3.9901 11.51634,-6.0796 1.32432,-0.6687 3.51096,-1.7466 3.54316,-1.7466 0.007,0 0.0121,0.0743 0.0121,0.16518 v 0.16518 l -1.77765,0.88892 c -5.51885,2.75974 -11.92988,6.12443 -14.31395,7.51235 l -0.29945,0.17433 h -0.28916 c -0.15903,0 -0.28473,-0.004 -0.27931,-0.009 z"
       id="path2194"
       transform="scale(0.26458333)" /><path
       style="fill:#ffffff;fill-opacity:1;stroke-width:0.0236233"
       d=""
       id="path2196"
       transform="scale(0.26458333)" /><path
       style="fill:#ffffff;fill-opacity:1;stroke-width:0.0236233"
       d=""
       id="path2198"
       transform="scale(0.26458333)" /><path
       style="fill:#ffffff;fill-opacity:1;stroke-width:0.0625"
       d="m 166.4375,450.87813 c 0,-0.0476 -0.0476,-0.0678 -0.117,-0.0496 -0.10577,0.0277 -0.14465,-0.10204 -0.40537,-1.35209 -0.35169,-1.68623 -0.45486,-2.29993 -0.53932,-3.20814 -0.0936,-1.00672 0.0199,-1.39329 0.4092,-1.39329 0.83274,0 3.44811,0.79727 7.19961,2.19473 3.50751,1.30658 9.3689,3.70099 9.13926,3.73344 -0.0853,0.0121 -0.17121,0.0478 -0.19087,0.0794 -0.0197,0.0316 -0.72278,-0.22723 -1.5625,-0.57522 -4.28489,-1.77573 -8.18701,-3.2752 -10.65176,-4.09314 -1.95123,-0.64753 -2.73926,-0.85085 -3.34073,-0.86192 -0.43662,-0.008 -0.47104,10e-4 -0.55059,0.14768 -0.197,0.36276 0.01,2.26245 0.48904,4.49015 0.10604,0.49303 0.17666,0.91256 0.15692,0.93229 -0.0197,0.0197 -0.0359,-2e-4 -0.0359,-0.0443 z"
       id="path2206"
       transform="scale(0.26458333)" /><path
       style="fill:#ffffff;fill-opacity:1;stroke-width:0.0883883"
       d="m 228.28978,492.19328 c -0.33147,-0.33147 -0.42392,-0.79023 -0.43008,-2.13406 -0.005,-1.03873 0.1151,-2.47142 0.21512,-2.57144 0.0158,-0.0158 0.055,0.40338 0.0871,0.93155 0.0701,1.15434 0.29241,3.00098 0.42432,3.52485 0.0751,0.29841 0.13543,0.37874 0.28379,0.37809 0.76787,-0.003 3.13527,-2.29435 4.55914,-4.41194 1.7957,-2.6706 3.15838,-6.35952 4.85104,-13.13232 0.80717,-3.22975 1.80284,-7.70191 2.70459,-12.148 0.42261,-2.08372 0.76855,-3.58887 0.82953,-3.60919 0.0575,-0.0192 0.10459,0.0447 0.10459,0.14189 0,0.34557 -2.0495,9.97336 -3.01362,14.15689 -2.17135,9.42195 -3.75765,13.28967 -6.85789,16.72098 -1.82542,2.02036 -3.138,2.77232 -3.75762,2.1527 z"
       id="path2426"
       transform="scale(0.26458333)" /><path
       style="fill:#ffffff;fill-opacity:1;stroke-width:0.0883883"
       d="m 228.3284,492.12422 c -0.10247,-0.10938 -0.23251,-0.3182 -0.28899,-0.46404 -0.13032,-0.33648 -0.13503,-3.33344 -0.006,-3.55577 0.0716,-0.12306 0.0917,-0.0638 0.0938,0.27685 0.004,0.60864 0.259,2.82469 0.39546,3.4336 0.12429,0.55463 0.0884,0.61161 -0.1947,0.30936 z"
       id="path2428"
       transform="scale(0.26458333)" /><path
       style="fill:#ffffff;fill-opacity:1;stroke-width:0.0441942"
       d="m 241.56908,459.70566 c -0.002,-0.0376 0.0643,-0.43538 0.1475,-0.88388 0.9623,-5.18923 1.18751,-8.00202 0.65698,-8.20561 -0.16741,-0.0642 -0.80571,0.20039 -2.81904,1.1687 -0.68059,0.32734 -1.46117,0.70188 -1.73462,0.83232 l -0.49719,0.23717 v -0.15468 c 0,-0.15405 0.002,-0.15567 0.51928,-0.40047 2.60496,-1.23301 4.04371,-1.828 4.42031,-1.828 0.26515,0 0.45349,0.15092 0.58105,0.46561 0.0914,0.22533 0.10977,0.3576 0.12688,0.91111 0.0381,1.2303 -0.19672,3.02198 -0.85616,6.53404 -0.17019,0.90638 -0.18663,0.97148 -0.19167,0.75911 -0.003,-0.11457 -0.0203,-0.14363 -0.0801,-0.13212 -0.0556,0.0107 -0.10302,0.11755 -0.17305,0.38994 -0.0531,0.20635 -0.0981,0.3444 -0.10019,0.30676 z"
       id="path2430"
       transform="scale(0.26458333)" /><path
       style="fill:#ffffff;fill-opacity:1;stroke-width:0.0441942"
       d="m 208.22131,491.29545 c -0.51309,-1.04217 -1.46579,-2.58807 -2.39838,-3.89171 -0.2054,-0.28711 -0.36356,-0.53191 -0.35148,-0.54399 0.0261,-0.0261 0.97349,1.16234 1.37851,1.72915 0.34124,0.47756 0.58909,0.88944 0.94393,1.56868 0.30043,0.5751 0.77277,1.65904 0.75083,1.72301 -0.008,0.0233 -0.15351,-0.24005 -0.32341,-0.58514 z"
       id="path2432"
       transform="scale(0.26458333)" /><path
       style="fill:#ffffff;fill-opacity:1;stroke-width:0.03125"
       d="m 207.79687,492.93186 c -0.83198,-0.61215 -2.24344,-1.92022 -4.71471,-4.36936 -8.01263,-7.94087 -14.87781,-15.854 -16.9199,-19.50266 -0.37514,-0.67028 -0.60803,-1.30437 -0.55568,-1.51296 0.017,-0.0678 0.037,-0.0781 0.15027,-0.0781 0.10162,0 0.12232,0.008 0.0932,0.0375 -0.0577,0.0577 -0.0446,0.31851 0.0267,0.52989 0.62236,1.84744 5.41466,7.91197 11.15727,14.1192 3.49236,3.77492 8.58415,8.84451 10.63795,10.59158 0.42824,0.36428 0.40954,0.34693 0.37344,0.34636 -0.0163,-2.5e-4 -0.12812,-0.0729 -0.24844,-0.16142 z"
       id="path2434"
       transform="scale(0.26458333)" /><path
       style="fill:#ffffff;fill-opacity:1;stroke-width:0.0220971"
       d="m 203.21394,484.20887 c -2.03315,-2.26366 -4.6807,-5.02295 -8.09557,-8.43725 -3.60233,-3.60173 -6.20774,-6.08194 -7.85661,-7.47908 -0.28654,-0.24279 -0.84345,-0.67484 -0.97392,-0.75555 -0.0362,-0.0224 -0.0248,-0.0265 0.0772,-0.0276 0.11293,-10e-4 0.1337,0.008 0.36722,0.16353 1.13319,0.75465 3.18868,2.656 6.86047,6.34598 3.31818,3.33462 5.44127,5.5382 7.49099,7.77495 1.18611,1.29434 2.44161,2.70314 2.42436,2.72039 -0.006,0.006 -0.1381,-0.13166 -0.2941,-0.30535 z"
       id="path2436"
       transform="scale(0.26458333)" /><path
       style="fill:#ffffff;fill-opacity:1;stroke-width:0.0078125"
       d="m 185.59428,467.56484 c -0.002,-0.0674 0.0402,-0.16876 0.0917,-0.22037 0.0845,-0.0845 0.21342,-0.092 0.41673,-0.0243 0.0802,0.0267 0.26845,0.11687 0.37619,0.18022 0.0699,0.0411 0.0896,0.0623 0.0277,0.0298 -0.0288,-0.0151 -0.0488,-0.0183 -0.13111,-0.0209 -0.0814,-0.003 -0.0986,-0.001 -0.10604,0.009 -0.008,0.0106 -0.0199,0.007 -0.0968,-0.0324 -0.0842,-0.0427 -0.0904,-0.0445 -0.14787,-0.0445 -0.0598,0 -0.0963,0.01 -0.13422,0.0356 -0.0166,0.0114 -0.021,0.0117 -0.0296,0.003 -0.008,-0.008 -0.0344,-0.0108 -0.10699,-0.0108 -0.0897,0 -0.0985,10e-4 -0.11766,0.0179 -0.0123,0.0106 -0.025,0.0336 -0.0311,0.0566 -0.006,0.0213 -0.0106,0.031 -0.0109,0.0216 z"
       id="path2438"
       transform="scale(0.26458333)" /><path
       style="fill:#ffffff;fill-opacity:1;stroke-width:0.0078125"
       d=""
       id="path2440"
       transform="scale(0.26458333)" /><path
       style="fill:#ffffff;fill-opacity:1;stroke-width:0.0078125"
       d=""
       id="path2442"
       transform="scale(0.26458333)" /><path
       style="fill:#ffffff;fill-opacity:1;stroke-width:0.00390625"
       d="m 208.85002,492.96973 c -0.004,-0.0307 -0.0193,-0.10755 -0.0359,-0.17527 -0.12304,-0.5028 -0.47237,-1.28442 -0.99492,-2.2261 -0.0586,-0.10566 -0.17568,-0.31284 -0.20468,-0.36231 -9.5e-4,-0.002 0.002,-0.003 0.006,-0.003 0.008,0 0.0282,0.0331 0.14603,0.24219 0.16944,0.30073 0.2593,0.46961 0.43858,0.82422 0.18425,0.36444 0.25806,0.50308 0.30934,0.58106 0.0416,0.0633 0.0428,0.0335 0.003,-0.0827 -0.0922,-0.27209 -0.40368,-0.97713 -0.64255,-1.45464 l -0.0551,-0.1101 h 0.0136 0.0136 l 0.0955,0.19239 c 0.52482,1.05761 0.8659,1.99476 0.92042,2.52895 0.004,0.0381 0.004,0.0451 -0.002,0.0557 -0.003,0.007 -0.007,0.0121 -0.008,0.0121 -7.2e-4,0 -0.002,-0.0101 -0.004,-0.0225 z"
       id="path2444"
       transform="scale(0.26458333)" /><path
       style="fill:#ffffff;fill-opacity:1;stroke-width:0.00390625"
       d="m 207.80155,490.16699 c -0.0106,-0.0199 -0.0312,-0.059 -0.0459,-0.0869 -0.39995,-0.76504 -0.71233,-1.25517 -1.23669,-1.94043 l -0.0501,-0.0654 0.0165,6e-5 0.0165,6e-5 0.0508,0.0672 c 0.37284,0.49363 0.612,0.8399 0.78985,1.14358 0.0848,0.14471 0.18821,0.32721 0.26575,0.46875 0.0832,0.15191 0.23542,0.44069 0.23542,0.44666 0,10e-4 -0.005,0.003 -0.0114,0.003 -0.0104,0 -0.0131,-0.003 -0.0308,-0.0361 z"
       id="path2446"
       transform="scale(0.26458333)" /><path
       style="fill:#ffffff;fill-opacity:1;stroke-width:0.00390625"
       d="m 207.60796,490.19434 c -0.003,-0.005 -0.0393,-0.0668 -0.0807,-0.1377 -0.22902,-0.39263 -0.50805,-0.84397 -0.79814,-1.29102 -0.0653,-0.10066 -0.43248,-0.65235 -0.45518,-0.68394 -0.005,-0.007 -0.004,-0.007 0.005,-0.007 0.009,0 0.0296,0.0295 0.1836,0.26074 0.22303,0.33488 0.36273,0.55052 0.55612,0.8584 0.20499,0.32636 0.35921,0.58117 0.59163,0.97754 0.0165,0.0282 0.0179,0.0322 0.0112,0.0322 -0.004,0 -0.0101,-0.004 -0.0131,-0.009 z"
       id="path2448"
       transform="scale(0.26458333)" /><path
       style="fill:#ffffff;fill-opacity:1;stroke-width:0.00390625"
       d="m 206.18164,487.9481 c -0.40608,-0.59402 -0.97293,-1.36809 -1.3236,-1.80748 -0.03,-0.0376 -0.0572,-0.0714 -0.0604,-0.0752 -0.006,-0.006 -0.004,-0.007 0.0329,-0.007 h 0.0388 l 0.0584,0.0693 c 0.58605,0.69624 1.15261,1.39553 1.51359,1.86816 0.0287,0.0376 0.0539,0.0706 0.0559,0.0733 0.003,0.004 -4e-5,0.005 -0.0121,0.005 h -0.0158 l -0.0791,-0.10254 c -0.44349,-0.5748 -0.8856,-1.11231 -0.91489,-1.11231 -0.01,0 -0.008,0.006 0.0135,0.0466 0.043,0.0805 0.16591,0.26455 0.34714,0.51985 0.19276,0.27152 0.44927,0.64081 0.44927,0.64679 0,9.1e-4 -0.004,0.002 -0.009,0.001 -0.007,-1.7e-4 -0.0255,-0.0247 -0.0947,-0.12592 z"
       id="path2450"
       transform="scale(0.26458333)" /><path
       style="fill:#ffffff;fill-opacity:1;stroke-width:0.00390625"
       d="m 204.74023,485.99499 c -0.31374,-0.3902 -0.85171,-1.01569 -1.43534,-1.66882 -0.18218,-0.20388 -0.52223,-0.58108 -0.6034,-0.66933 -0.008,-0.009 -0.01,-0.0126 -0.006,-0.0117 0.006,10e-4 0.11308,0.11777 0.37236,0.40568 0.30892,0.34304 0.42754,0.46819 0.43984,0.46409 0.0103,-0.003 -0.0722,-0.10306 -0.3246,-0.39184 -0.12506,-0.14311 -0.39073,-0.44398 -0.41131,-0.46582 -0.009,-0.009 -0.0102,-0.0127 -0.006,-0.0127 0.007,0 0.0249,0.0201 0.33163,0.36719 0.58828,0.66563 1.08765,1.24134 1.58907,1.83203 l 0.17741,0.20898 -0.023,0.003 c -0.0522,0.006 -0.0444,0.0104 -0.10116,-0.0603 z"
       id="path2452"
       transform="scale(0.26458333)" /><path
       style="fill:#ffffff;fill-opacity:1;stroke-width:0.015625"
       d=""
       id="path2454"
       transform="scale(0.26458333)" /><path
       style="fill:#ffffff;fill-opacity:1;stroke-width:0.015625"
       d=""
       id="path2456"
       transform="scale(0.26458333)" /><path
       style="fill:#ffffff;fill-opacity:1;stroke-width:0.015625"
       d="m 224.36217,483.43877 c -0.0418,-0.50485 -0.12513,-1.16554 -0.22341,-1.77142 -0.0345,-0.21304 -0.0602,-0.39528 -0.057,-0.40498 0.0154,-0.0461 0.19878,1.13816 0.24612,1.58919 0.0383,0.36483 0.068,0.75791 0.0603,0.79718 -0.003,0.017 -0.0151,-0.0775 -0.026,-0.20997 z"
       id="path2458"
       transform="scale(0.26458333)" /><path
       style="fill:#ffffff;fill-opacity:1;stroke-width:0.00552427"
       d=""
       id="path2460"
       transform="scale(0.26458333)" /><path
       style="fill:#ffffff;fill-opacity:1;stroke-width:0.00552427"
       d=""
       id="path2462"
       transform="scale(0.26458333)" /><text
       xml:space="preserve"
       transform="scale(0.26458333)"
       id="text4014"
       style="font-style:normal;font-variant:normal;font-weight:normal;font-stretch:normal;font-size:42.6667px;font-family:'Sitka Display';-inkscape-font-specification:'Sitka Display';white-space:pre;shape-inside:url(#rect4016);display:inline;fill:#ffffff;fill-opacity:1" /></g></svg>
